# xmcd CD database file
#
# Track frame offsets:
#	150
#	10507
#	22903
#	33630
#	42046
#	53830
#	66442
#	79050
#	90412
#	106605
#	117937
#	125594
#	139132
#	151220
#	162621
#	171708
#	182298
#	192247
#
# Disc length: 2707 seconds
#
# Revision: 0
# Processed by: cddbd v1.5.2PL0 Copyright (c) Steve Scherf et al.
# Submitted via: CDex 1.51
#
DISCID=e40a9112
DTITLE=Nev Nicholls - The Great Nev Nicholls CD 3
DYEAR=2004
DGENRE=Country
TTITLE0=A Good Love Is Like A Good Song
TTITLE1=Neon Rose
TTITLE2=Think Of Me When Your Lonely
TTITLE3=You Won't See Which Way I Went
TTITLE4=Good Old Love
TTITLE5=Biding My Time
TTITLE6=A Daisy A Day
TTITLE7=Always, Sometimes And Maybe
TTITLE8=Woman Of The Night
TTITLE9=Take My Heart
TTITLE10=Love, Love, Love
TTITLE11=Dance In The Old Fashioned Way
TTITLE12=Shutter And Boards
TTITLE13=You're Sixteen
TTITLE14=Beautiful Dreamer
TTITLE15=Chained
TTITLE16=Hit The Road Jack
TTITLE17=Sweet Thang
EXTD=YEAR: 2004
EXTT0=
EXTT1=
EXTT2=
EXTT3=
EXTT4=
EXTT5=
EXTT6=
EXTT7=
EXTT8=
EXTT9=
EXTT10=
EXTT11=
EXTT12=
EXTT13=
EXTT14=
EXTT15=
EXTT16=
EXTT17=
PLAYORDER=
